<svg width="16" height="12" viewBox="0 0 16 12" fill="none" xmlns="http://www.w3.org/2000/svg">
<path d="M8.05115 -0.001297C8.05684 -0.00128492 8.06298 -0.00127083 8.06955 -0.00125439L8.14035 -0.001034C8.96214 0.00198509 13.1273 0.032176 14.2503 0.334085C14.9387 0.51873 15.4808 1.06288 15.6648 1.75362C15.7661 2.13311 15.8367 2.63751 15.8859 3.15627L15.8954 3.26018C15.9032 3.34687 15.9103 3.43376 15.9169 3.52034L15.9246 3.62404C15.9904 4.53814 15.998 5.39355 15.9989 5.5807L15.999 5.60595C15.999 5.60801 15.999 5.61139 15.999 5.61139V5.62557C15.999 5.62557 15.999 5.62895 15.999 5.63101L15.9989 5.65626C15.998 5.85048 15.9898 6.76438 15.9169 7.71668L15.9087 7.82069L15.9 7.9248C15.8505 8.49738 15.7762 9.06594 15.6648 9.48334C15.4808 10.1741 14.9387 10.7184 14.2503 10.9029C13.0898 11.215 8.68109 11.2368 8.06955 11.2383L8.02246 11.2384C8.0186 11.2384 8.0152 11.2384 8.01228 11.2385L7.99307 11.2385C7.99307 11.2385 7.98866 11.2385 7.98573 11.2385L7.92846 11.2383C7.61941 11.2376 6.34057 11.2316 5.0013 11.1856L4.83007 11.1795C4.8015 11.1785 4.77292 11.1774 4.74434 11.1763L4.57291 11.1695L4.40188 11.1623C3.29238 11.1136 2.23452 11.0338 1.74789 10.9029C1.05947 10.7184 0.517371 10.1741 0.333379 9.48334C0.221913 9.06594 0.147602 8.49738 0.0980616 7.9248L0.0893244 7.82069L0.0811165 7.71668C0.0109033 6.79901 0.000711116 5.917 -0.000768403 5.68027L-0.000945201 5.64638C-0.000957608 5.64333 -0.000967947 5.64052 -0.000976562 5.63796V5.599C-0.000967947 5.59644 -0.000957608 5.59363 -0.000945201 5.59058L-0.000768403 5.55669C0.000571538 5.3423 0.00905783 4.59867 0.0628044 3.77859L0.0697612 3.67571C0.0709608 3.65851 0.0721808 3.64128 0.0734215 3.62404L0.0811165 3.52034C0.0877404 3.43376 0.0948985 3.34687 0.102634 3.26018L0.112196 3.15627C0.16142 2.63751 0.232046 2.13311 0.333379 1.75362C0.517371 1.06288 1.05947 0.51873 1.74789 0.334085C2.23452 0.203258 3.29238 0.123453 4.40188 0.0747723L4.57291 0.0675258L4.74434 0.0607543C4.77292 0.0596644 4.8015 0.0585937 4.83007 0.0575417L5.0013 0.0514525C6.25508 0.00841239 7.45591 0.000441997 7.85767 -0.001034L7.92846 -0.00125439C7.93504 -0.00127083 7.94117 -0.00128492 7.94686 -0.001297H8.05115ZM6.39905 3.2099V8.02706L10.5558 5.61861L6.39905 3.2099Z" fill="#652D86"/>
</svg>
